<svg width="124" height="123" viewBox="0 0 124 123" fill="none" xmlns="http://www.w3.org/2000/svg">
<rect x="26.5487" width="100" height="100" rx="20" transform="rotate(15 26.5487 0)" fill="#FFE8C8" fill-opacity="0.5"/>
<rect x="11.6669" y="11" width="100" height="100" rx="20" fill="#FFE8C8"/>
<g clip-path="url(#clip0_1_454)">
<path d="M52.1793 59.498C44.5276 58.7794 38.6669 52.4347 38.6669 44.7383V42.043C38.6669 39.8136 40.4805 38 42.7098 38C44.9392 38 46.7528 39.8136 46.7528 42.043C46.7528 42.7865 47.3569 43.3906 48.1005 43.3906H50.8856C51.6305 43.3906 52.2333 43.9934 52.2333 44.7383C52.2333 45.4832 51.6305 46.0859 50.8856 46.0859H48.1005C45.8711 46.0859 44.0575 44.2724 44.0575 42.043C44.0575 41.2994 43.4534 40.6953 42.7098 40.6953C41.9663 40.6953 41.3622 41.2994 41.3622 42.043V44.7383C41.3622 51.0357 46.1728 56.2262 52.432 56.8132C53.173 56.8829 53.7165 57.541 53.648 58.282C53.5783 59.0206 52.9243 59.5657 52.1793 59.498Z" fill="#FB9333"/>
<path d="M69.7753 58.282C69.7069 57.541 70.2504 56.883 70.9914 56.8132C77.2506 56.2262 81.9714 51.0357 81.9714 44.7383V42.043C81.9714 41.2994 81.3673 40.6953 80.6237 40.6953C79.8802 40.6953 79.2761 41.2994 79.2761 42.043C79.2761 44.2724 77.4625 46.0859 75.2331 46.0859H72.5378C71.7929 46.0859 71.1901 45.4832 71.1901 44.7383C71.1901 43.9934 71.7929 43.3906 72.5378 43.3906H75.2331C75.9766 43.3906 76.5807 42.7865 76.5807 42.043C76.5807 39.8136 78.3943 38 80.6237 38C82.8531 38 84.6667 39.8136 84.6667 42.043V44.7383C84.6667 52.4347 78.8958 58.7794 71.2441 59.498C70.4992 59.5657 69.8451 59.0206 69.7753 58.282Z" fill="#FB9333"/>
<path d="M72.538 38H61.6669H50.8856C50.1407 38 49.538 38.6028 49.538 39.3477V52.8242C49.538 57.9767 52.8137 62.5223 57.6239 64.2201V74.5664H61.6669H65.7098V64.2201C70.5201 62.5224 73.8856 57.9767 73.8856 52.8242V39.3477C73.8856 38.6028 73.2829 38 72.538 38Z" fill="#FFDF40"/>
<path d="M65.7098 64.2201C70.5201 62.5224 73.8856 57.9767 73.8856 52.8242V39.3477C73.8856 38.6028 73.2829 38 72.538 38H61.6669V74.5664H65.7098V64.2201Z" fill="#FFBE40"/>
<path d="M68.55 48.3917C68.3908 47.9034 67.9696 47.548 67.4616 47.4744L64.2926 47.0137L62.8752 44.1421C62.6488 43.6814 62.158 43.4512 61.6671 43.4512C61.1762 43.4512 60.6853 43.6814 60.4589 44.1421L59.0416 47.0137L55.8725 47.4744C55.3645 47.548 54.9433 47.9034 54.7841 48.3917C54.6262 48.8786 54.7578 49.4143 55.125 49.7722L57.4189 52.0083L56.8779 55.1642C56.7911 55.6696 56.9991 56.1802 57.4136 56.4816C57.8281 56.7843 58.3835 56.8238 58.8323 56.5843L61.667 55.0957L64.5018 56.5842C64.9491 56.8214 65.5029 56.7867 65.9205 56.4815C66.3351 56.1801 66.5431 55.6695 66.4562 55.1641L65.9152 52.0082L68.2091 49.7721C68.5763 49.4143 68.7079 48.8786 68.55 48.3917V48.3917Z" fill="#FFBE40"/>
<path d="M65.9205 56.4816C66.335 56.1802 66.543 55.6696 66.4561 55.1642L65.9152 52.0083L68.209 49.7722C68.5762 49.4143 68.7079 48.8786 68.5499 48.3917C68.3907 47.9034 67.9695 47.548 67.4616 47.4744L64.2925 47.0137L62.8751 44.1421C62.6487 43.6814 62.1579 43.4512 61.667 43.4512V55.0957L64.5018 56.5842C64.949 56.8215 65.5028 56.7868 65.9205 56.4816V56.4816Z" fill="#FB9333"/>
<path d="M72.4481 78.6094H71.1005V74.5664C71.1005 73.8215 70.4977 73.2188 69.7528 73.2188H61.6669H53.5809C52.836 73.2188 52.2333 73.8215 52.2333 74.5664V78.6094H50.8856C50.1407 78.6094 49.538 79.2121 49.538 79.957V82.6523C49.538 83.3972 50.1407 84 50.8856 84H61.6669H72.4481C73.193 84 73.7958 83.3972 73.7958 82.6523V79.957C73.7958 79.2121 73.193 78.6094 72.4481 78.6094Z" fill="#FB9333"/>
<path d="M73.7958 82.6523V79.957C73.7958 79.2121 73.193 78.6094 72.4481 78.6094H71.1005V74.5664C71.1005 73.8215 70.4977 73.2188 69.7528 73.2188H61.6669V84H72.4481C73.193 84 73.7958 83.3972 73.7958 82.6523Z" fill="#FB9333"/>
<path d="M64.3622 77.2617H61.6669H58.9716C58.2267 77.2617 57.6239 77.8645 57.6239 78.6094C57.6239 79.3543 58.2267 79.957 58.9716 79.957H61.6669H64.3622C65.1071 79.957 65.7098 79.3543 65.7098 78.6094C65.7098 77.8645 65.1071 77.2617 64.3622 77.2617Z" fill="white"/>
<path d="M65.7098 78.6094C65.7098 77.8645 65.1071 77.2617 64.3622 77.2617H61.6669V79.957H64.3622C65.1071 79.957 65.7098 79.3543 65.7098 78.6094Z" fill="white"/>
</g>
<defs>
<clipPath id="clip0_1_454">
<rect width="46" height="46" fill="white" transform="translate(38.6669 38)"/>
</clipPath>
</defs>
</svg>
