<svg width="123" height="123" viewBox="0 0 123 123" fill="none" xmlns="http://www.w3.org/2000/svg">
<rect x="25.8819" width="100" height="100" rx="20" transform="rotate(15 25.8819 0)" fill="#FFE8C8" fill-opacity="0.5"/>
<rect x="11.0001" y="11" width="100" height="100" rx="20" fill="#FFE8C8"/>
<g clip-path="url(#clip0_1_372)">
<path d="M52.504 86.6998H33.8126C32.8741 86.6998 32.1133 85.939 32.1133 85.0006V64.61C32.1133 63.6716 32.8741 62.9108 33.8126 62.9108H52.504C53.4424 62.9108 54.2032 63.6716 54.2032 64.61V85.0006C54.2032 85.939 53.4424 86.6998 52.504 86.6998Z" fill="#FB9333"/>
<path d="M52.504 62.9108H42.3087V86.6998H52.504C53.4424 86.6998 54.2032 85.939 54.2032 85.0006V64.61C54.2032 63.6716 53.4424 62.9108 52.504 62.9108Z" fill="#FB9333"/>
<path d="M84.4676 42.3522L79.918 40.5397L74.9153 42.3522L73.4726 54.6146C73.416 55.0965 73.568 55.5797 73.8904 55.9423C74.2128 56.3049 74.675 56.5123 75.1602 56.5123H84.2227C84.7079 56.5123 85.1699 56.3049 85.4924 55.9423C85.815 55.5797 85.9669 55.0965 85.9102 54.6146L84.4676 42.3522Z" fill="#FB9333"/>
<path d="M85.9099 54.6146L84.4673 42.3522L79.9177 40.5397L79.6911 40.6218V56.5123H84.2224C84.7075 56.5123 85.1696 56.3049 85.4921 55.9423C85.8146 55.5797 85.9666 55.0964 85.9099 54.6146V54.6146Z" fill="#FB9333"/>
<path d="M56.4804 54.6146C56.4238 55.0965 56.5758 55.5797 56.8982 55.9423C57.2206 56.3049 57.6828 56.5123 58.168 56.5123H67.2305C67.7157 56.5123 68.1778 56.3049 68.5003 55.9423C68.8228 55.5797 68.9747 55.0965 68.918 54.6146L67.4754 42.3522L62.8125 39.6334L57.9231 42.3522L56.4804 54.6146Z" fill="#FB9333"/>
<path d="M68.9177 54.6146L67.4751 42.3522L62.8122 39.6334L62.6989 39.6964V56.5123H67.2302C67.7153 56.5123 68.1774 56.3049 68.4999 55.9423C68.8224 55.5797 68.9744 55.0964 68.9177 54.6146V54.6146Z" fill="#FB9333"/>
<path d="M83.6447 35.3568C83.5441 34.501 82.8188 33.8561 81.9572 33.8561H77.4259C76.5643 33.8561 75.839 34.501 75.7384 35.3568L74.9154 42.3522H84.4678L83.6447 35.3568Z" fill="#FFAC37"/>
<path d="M83.6443 35.3568C83.5437 34.501 82.8183 33.8561 81.9567 33.8561H79.6911V42.3522H84.4673L83.6443 35.3568Z" fill="#FFAC37"/>
<path d="M64.965 33.8561H60.4338C59.5721 33.8561 58.8468 34.501 58.7462 35.3568L57.9232 42.3522H67.4757L66.6527 35.3568C66.552 34.501 65.8266 33.8561 64.965 33.8561V33.8561Z" fill="#FFAC37"/>
<path d="M66.6521 35.3568C66.5515 34.501 65.8262 33.8561 64.9645 33.8561H62.6989V42.3522H67.4751L66.6521 35.3568Z" fill="#FFAC37"/>
<path d="M38.9102 76.5045C37.9718 76.5045 37.211 75.7437 37.211 74.8053V71.4069C37.211 70.4684 37.9718 69.7076 38.9102 69.7076C39.8486 69.7076 40.6094 70.4684 40.6094 71.4069V74.8053C40.6094 75.7437 39.8486 76.5045 38.9102 76.5045Z" fill="#FFF8EE"/>
<path d="M45.7071 76.5045C44.7687 76.5045 44.0079 75.7437 44.0079 74.8053V71.4069C44.0079 70.4684 44.7687 69.7076 45.7071 69.7076C46.6455 69.7076 47.4063 70.4684 47.4063 71.4069V74.8053C47.4063 75.7437 46.6455 76.5045 45.7071 76.5045Z" fill="white"/>
<path d="M76.293 86.6998H88.1876C89.126 86.6998 89.8868 85.939 89.8868 85.0006V57.8131C89.8868 56.8747 89.126 56.1139 88.1876 56.1139H54.2032C53.2648 56.1139 52.504 56.8747 52.504 57.8131V86.6998H66.0977L70.9688 85.7936L76.293 86.6998Z" fill="#FFAC37"/>
<path d="M88.1876 56.1139H71.1954V85.8321L76.293 86.6998H88.1876C89.126 86.6998 89.8868 85.939 89.8868 85.0006V57.8131C89.8868 56.8747 89.126 56.1139 88.1876 56.1139Z" fill="#FFAC37"/>
<path d="M61.0001 79.903C60.0616 79.903 59.3008 79.1422 59.3008 78.2037V74.8053C59.3008 73.8669 60.0616 73.1061 61.0001 73.1061C61.9385 73.1061 62.6993 73.8669 62.6993 74.8053V78.2037C62.6993 79.1422 61.9385 79.903 61.0001 79.903Z" fill="#FFF8EE"/>
<path d="M61.0001 69.7076C60.0616 69.7076 59.3008 68.9468 59.3008 68.0084V64.61C59.3008 63.6716 60.0616 62.9108 61.0001 62.9108C61.9385 62.9108 62.6993 63.6716 62.6993 64.61V68.0084C62.6993 68.9468 61.9385 69.7076 61.0001 69.7076Z" fill="#FFF8EE"/>
<path d="M81.3907 79.903C80.4523 79.903 79.6915 79.1422 79.6915 78.2037V74.8053C79.6915 73.8669 80.4523 73.1061 81.3907 73.1061C82.3291 73.1061 83.0899 73.8669 83.0899 74.8053V78.2037C83.0899 79.1422 82.3291 79.903 81.3907 79.903Z" fill="white"/>
<path d="M81.3907 69.7076C80.4523 69.7076 79.6915 68.9468 79.6915 68.0084V64.61C79.6915 63.6716 80.4523 62.9108 81.3907 62.9108C82.3291 62.9108 83.0899 63.6716 83.0899 64.61V68.0084C83.0899 68.9468 82.3291 69.7076 81.3907 69.7076Z" fill="white"/>
<path d="M67.7969 69.7076C66.8585 69.7076 66.0977 68.9468 66.0977 68.0084V64.61C66.0977 63.6716 66.8585 62.9108 67.7969 62.9108C68.7354 62.9108 69.4962 63.6716 69.4962 64.61V68.0084C69.4962 68.9468 68.7354 69.7076 67.7969 69.7076Z" fill="#FFF8EE"/>
<path d="M74.5938 69.7076C73.6554 69.7076 72.8946 68.9468 72.8946 68.0084V64.61C72.8946 63.6716 73.6554 62.9108 74.5938 62.9108C75.5322 62.9108 76.293 63.6716 76.293 64.61V68.0084C76.293 68.9468 75.5322 69.7076 74.5938 69.7076Z" fill="white"/>
<path d="M74.5938 73.1061H67.7969C66.8585 73.1061 66.0977 73.8669 66.0977 74.8053V86.6998H69.4962L71.0821 85.567L72.8946 86.6998H76.293V74.8053C76.293 73.8669 75.5322 73.1061 74.5938 73.1061Z" fill="#FFF8EE"/>
<path d="M74.5938 73.1061H71.1954V85.6378L72.8946 86.6998H76.293V74.8053C76.293 73.8669 75.5322 73.1061 74.5938 73.1061Z" fill="white"/>
<path d="M69.4962 76.5045H72.8946V86.6998H69.4962V76.5045Z" fill="#FFAC37"/>
<path d="M71.1954 76.5045H72.8946V86.6998H71.1954V76.5045Z" fill="#FFAC37"/>
</g>
<defs>
<clipPath id="clip0_1_372">
<rect width="58" height="58" fill="white" transform="translate(32.0001 29)"/>
</clipPath>
</defs>
</svg>
